<?xml version="1.0" standalone="no"?>
<!DOCTYPE svg PUBLIC "-//W3C//DTD SVG 20010904//EN"
 "http://www.w3.org/TR/2001/REC-SVG-20010904/DTD/svg10.dtd">
<svg version="1.0" xmlns="http://www.w3.org/2000/svg"
 width="506.000000pt" height="506.000000pt" viewBox="0 0 506.000000 506.000000"
 preserveAspectRatio="xMidYMid meet">

<g transform="translate(0.000000,506.000000) scale(0.100000,-0.100000)"
fill="#000000" stroke="none">
<path d="M0 2530 l0 -2530 789 0 788 0 12 73 c21 123 24 240 12 389 -7 79 -14
156 -17 171 -6 27 -7 27 -19 10 -7 -10 -30 -52 -52 -93 -125 -236 -151 -271
-235 -323 -70 -43 -293 -2 -439 81 -121 69 -111 53 -130 202 -11 87 -10 105
10 205 20 101 20 117 8 191 -10 65 -11 88 -1 115 7 19 13 43 13 53 1 28 79
144 102 151 21 7 25 21 33 113 8 85 54 155 57 85 l1 -28 8 25 c16 51 11 91
-19 133 -40 58 -61 113 -61 156 0 20 -6 83 -15 141 -30 219 -36 312 -25 390 6
41 15 115 20 163 13 123 48 169 93 119 18 -20 23 -77 8 -86 -20 -13 -30 -230
-11 -250 13 -13 60 2 66 22 3 9 10 25 15 35 6 11 7 42 4 72 -4 31 -3 67 4 87
6 18 17 74 25 123 30 179 26 170 71 170 l40 0 3 -58 c2 -36 -5 -90 -17 -140
-23 -89 -28 -236 -10 -254 14 -14 39 -6 39 13 0 8 4 14 8 14 5 0 14 34 20 77
7 42 16 81 21 87 5 6 11 45 15 86 8 88 25 184 38 221 9 27 36 38 70 31 23 -5
41 -55 35 -99 -17 -115 -29 -179 -37 -194 -5 -9 -16 -57 -24 -105 -9 -49 -18
-106 -22 -127 l-7 -37 50 0 c41 0 54 5 76 28 15 16 35 44 45 63 24 45 46 83
52 89 3 3 21 39 39 80 60 133 124 190 162 144 17 -20 15 -75 -3 -111 -36 -68
-54 -98 -61 -101 -4 -2 -7 -8 -7 -13 0 -9 -113 -208 -152 -267 -40 -61 -108
-229 -108 -267 0 -13 7 -15 38 -9 45 8 83 33 143 96 26 26 55 48 66 48 10 0
23 4 29 9 22 22 70 22 97 1 34 -27 34 -46 0 -77 l-28 -25 37 6 c35 6 38 5 43
-21 3 -15 10 -41 14 -58 5 -16 12 -48 15 -70 8 -48 26 -95 36 -95 4 0 15 10
23 22 l16 23 25 -30 c14 -16 49 -77 77 -134 29 -57 62 -113 74 -125 12 -12 50
-48 86 -80 l64 -60 9 26 9 26 64 -35 c35 -19 70 -33 78 -29 8 3 17 1 20 -4 4
-6 15 -10 27 -10 17 0 19 4 13 28 -5 21 1 16 24 -21 42 -64 66 -63 106 4 20
34 31 45 33 34 3 -12 10 -15 29 -10 15 3 22 2 19 -4 -17 -27 25 -20 68 12 27
19 87 57 91 57 3 0 5 -7 5 -15 0 -8 9 -15 20 -15 27 0 149 122 185 185 86 150
145 219 145 170 0 -8 6 -15 14 -15 19 0 43 64 64 171 9 49 20 89 24 89 4 0 15
-24 24 -54 16 -50 21 -56 63 -72 44 -16 155 -96 231 -165 19 -17 44 -39 56
-48 24 -19 83 -187 112 -321 11 -52 28 -160 37 -240 14 -129 56 -411 100 -675
9 -49 30 -147 47 -217 l32 -128 538 0 538 0 0 2530 0 2530 -2530 0 -2530 0 0
-2530z m2826 1300 c26 -21 62 -40 75 -40 13 0 89 -76 89 -90 0 -5 4 -10 9 -10
9 0 36 -59 51 -112 10 -33 9 -33 -32 -12 -41 21 -342 33 -376 15 -52 -28 -9
-100 61 -102 40 -1 40 -2 12 -9 -40 -10 -266 -10 -330 0 -29 4 -38 8 -23 9 44
2 107 31 114 53 4 13 0 26 -10 37 -14 13 -44 17 -174 19 -154 3 -176 0 -254
-33 -13 -5 -18 -3 -18 7 0 8 8 24 18 35 9 12 31 38 47 59 17 21 51 63 76 94
25 30 48 63 51 72 4 9 17 19 30 21 13 3 145 4 294 3 225 -1 275 -4 290 -16z
m-499 -416 c64 -14 72 -19 97 -57 23 -35 27 -49 22 -87 -4 -25 -12 -49 -19
-55 -7 -5 -11 -19 -9 -31 9 -62 -96 -209 -185 -259 -109 -61 -267 -46 -326 30
-17 21 14 370 37 426 4 9 21 23 39 31 45 22 252 23 344 2z m732 4 c28 -6 53
-18 56 -27 24 -58 55 -256 55 -348 0 -104 -10 -133 -45 -133 -7 0 -15 -5 -17
-12 -3 -8 -35 -12 -99 -12 -85 0 -99 3 -148 30 -29 16 -65 43 -80 60 -14 17
-35 42 -47 56 -37 44 -43 147 -8 134 11 -4 11 -2 2 13 -14 23 1 70 30 89 22
14 22 14 22 -30 0 -32 7 -54 22 -73 l22 -28 -34 6 c-28 5 -31 4 -17 -4 10 -6
27 -9 38 -6 10 3 22 1 25 -5 11 -17 88 3 116 29 32 30 43 69 29 106 -10 25 -9
25 18 16 63 -22 94 -85 54 -108 -10 -6 -13 -10 -8 -10 19 0 46 27 54 55 9 33
4 57 -10 48 -5 -3 -9 0 -9 5 0 6 -9 11 -20 11 -19 0 -28 24 -12 33 4 2 0 2 -8
-1 -33 -10 -55 -7 -52 8 3 12 1 13 -9 3 -18 -18 -44 -16 -63 3 -9 8 -16 11
-16 5 0 -6 -15 -11 -34 -11 -19 0 -56 -9 -82 -21 -68 -29 -144 -27 -144 3 0
10 5 18 10 18 6 0 10 8 10 18 0 32 43 61 111 76 80 17 221 20 288 4z m-181
-153 c16 -35 15 -45 -4 -45 -20 0 -43 28 -44 53 0 26 35 21 48 -8z m-299 -24
c27 -27 35 -78 27 -172 -6 -76 -6 -79 22 -111 47 -53 48 -71 7 -107 -32 -28
-42 -31 -98 -31 -44 0 -71 6 -95 20 -51 31 -85 26 -133 -20 -23 -22 -51 -40
-62 -40 -24 0 -141 -77 -181 -119 -18 -19 -40 -31 -55 -31 -27 0 -71 35 -71
57 0 7 -4 13 -10 13 -5 0 -10 10 -10 23 0 13 -5 28 -11 34 -6 6 -8 32 -3 71
l6 60 42 -18 c97 -43 206 -33 306 27 67 40 79 50 108 87 13 17 22 23 22 14 0
-8 -9 -23 -20 -33 -11 -10 -20 -22 -20 -26 0 -17 66 6 92 32 27 26 28 30 20
86 -5 33 -5 66 -1 74 4 8 15 36 24 62 11 30 25 52 39 57 31 13 34 12 55 -9z
m321 -384 c14 -3 43 -10 65 -16 37 -9 57 -7 153 14 27 7 28 -3 5 -99 -13 -54
-24 -77 -47 -97 l-29 -27 -26 25 c-46 43 -169 123 -191 123 -28 0 -59 37 -60
70 0 14 -4 39 -9 56 l-9 31 62 -37 c33 -20 72 -40 86 -43z m-230 -269 c22 -16
27 -24 18 -30 -15 -10 -251 -8 -288 2 l-25 6 35 22 c30 19 50 22 133 22 85 0
102 -3 127 -22z m-313 -94 c53 -12 100 -15 213 -10 80 3 164 8 187 12 38 5 41
4 36 -14 -8 -32 -45 -61 -102 -81 -30 -10 -47 -21 -40 -24 8 -3 2 -6 -13 -6
-16 -1 -28 -5 -28 -11 0 -6 -27 -10 -61 -10 -48 0 -65 4 -78 19 -14 16 -110
45 -119 36 -2 -2 9 -10 25 -19 50 -27 0 -17 -57 11 -73 37 -86 50 -60 58 16 5
18 10 10 25 -7 13 -6 20 3 23 6 3 13 6 14 6 1 1 32 -6 70 -15z"/>
<path d="M2104 3326 c6 -17 3 -18 -30 -13 -29 5 -34 4 -25 -7 14 -16 -10 -29
-35 -19 -13 5 -15 2 -9 -18 7 -21 6 -22 -8 -11 -9 8 -18 9 -21 4 -3 -6 1 -12
9 -16 8 -3 15 -14 15 -25 0 -11 5 -23 10 -26 6 -3 10 4 10 17 0 31 9 42 47 62
43 22 45 21 38 -18 -19 -100 100 -166 174 -97 26 24 31 36 31 76 0 57 15 56
49 -4 27 -48 36 -47 27 3 -6 30 -14 38 -61 60 -29 15 -72 26 -94 26 -22 0 -42
5 -44 13 -4 10 -6 10 -6 0 -1 -7 -14 -13 -29 -13 -15 0 -34 6 -41 13 -12 10
-13 9 -7 -7z m123 -62 c22 -47 -9 -61 -40 -19 -10 14 -15 30 -12 35 12 19 40
10 52 -16z"/>
<path d="M2523 2373 c9 -2 23 -2 30 0 6 3 -1 5 -18 5 -16 0 -22 -2 -12 -5z"/>
<path d="M1595 1790 c-16 -16 -24 -30 -18 -30 7 0 21 14 33 30 12 17 20 30 18
30 -3 0 -17 -13 -33 -30z"/>
<path d="M1539 1727 c-13 -13 -55 -58 -92 -100 -75 -85 -122 -114 -194 -123
-27 -3 -67 -13 -90 -22 -41 -16 -43 -19 -43 -58 0 -28 5 -44 15 -48 22 -8 65
11 65 28 0 30 73 93 123 106 38 10 63 27 111 75 53 52 143 165 132 165 -1 0
-14 -10 -27 -23z"/>
<path d="M1866 1136 c-52 -27 -64 -57 -45 -120 19 -66 39 -80 118 -86 l66 -5
-3 -58 c-5 -79 17 -375 30 -410 20 -51 52 -67 137 -67 l76 0 -7 157 c-5 87 -5
230 -2 318 6 172 2 194 -40 237 -32 31 -89 45 -205 51 -70 3 -90 0 -125 -17z"/>
<path d="M2360 1107 c-46 -24 -57 -44 -59 -105 -1 -49 53 -102 104 -102 87 0
133 66 109 157 -6 23 -50 55 -90 67 -12 4 -37 -3 -64 -17z"/>
<path d="M2655 1116 c-63 -27 -65 -39 -65 -313 1 -268 10 -345 47 -387 21 -24
29 -26 108 -26 l86 0 -6 188 c-7 239 -23 409 -41 444 -8 15 -14 38 -14 51 0
14 -6 29 -12 35 -23 18 -72 22 -103 8z"/>
<path d="M2925 1118 c-11 -6 -28 -21 -39 -32 -17 -20 -18 -36 -12 -251 10
-334 12 -358 49 -400 29 -35 31 -35 109 -35 l79 0 -6 138 c-20 437 -32 535
-71 570 -27 24 -76 29 -109 10z"/>
<path d="M2334 776 l-34 -34 0 -131 c0 -143 8 -172 56 -210 22 -17 41 -21 104
-21 l78 0 -5 148 c-5 195 -8 206 -49 247 -28 29 -42 35 -75 35 -33 0 -47 -6
-75 -34z"/>
<path d="M3212 645 c-39 -21 -56 -55 -56 -111 0 -70 39 -124 90 -124 28 0 38
6 54 33 34 56 19 168 -28 203 -21 16 -30 16 -60 -1z"/>
</g>
</svg>
